<svg width="21" height="22" viewBox="0 0 21 22" fill="none" xmlns="http://www.w3.org/2000/svg">
<circle cx="10.5" cy="11.3889" r="10.5" fill="white"/>
<path d="M11.5078 10.7369C11.8064 10.4662 12.0211 10.2002 12.1518 9.93892C12.2824 9.67758 12.3478 9.34625 12.3478 8.94492C12.3478 8.42225 12.1984 8.00225 11.8998 7.68492C11.6011 7.36758 11.1484 7.20892 10.5418 7.20892C9.94445 7.20892 9.49645 7.36758 9.19778 7.68492C8.89911 7.99292 8.68445 8.41292 8.55378 8.94492C8.52578 9.04758 8.47911 9.12692 8.41378 9.18292C8.34845 9.23892 8.27378 9.26692 8.18978 9.26692H7.54578C7.46178 9.26692 7.38711 9.23892 7.32178 9.18292C7.26578 9.11758 7.23778 9.04292 7.23778 8.95892C7.25645 8.48292 7.39645 8.01158 7.65778 7.54492C7.92845 7.07825 8.31111 6.69558 8.80578 6.39692C9.30045 6.09825 9.87911 5.94892 10.5418 5.94892C11.2044 5.94892 11.7691 6.08425 12.2358 6.35492C12.7118 6.61625 13.0711 6.97558 13.3138 7.43292C13.5564 7.88092 13.6778 8.38492 13.6778 8.94492C13.6778 9.53292 13.5751 10.0369 13.3698 10.4569C13.1738 10.8676 12.8331 11.2876 12.3478 11.7169L9.22578 14.6289H13.5098C13.6124 14.6289 13.7011 14.6662 13.7758 14.7409C13.8504 14.8156 13.8878 14.9042 13.8878 15.0069V15.5109C13.8878 15.6136 13.8504 15.7022 13.7758 15.7769C13.7011 15.8516 13.6124 15.8889 13.5098 15.8889H7.47578C7.37311 15.8889 7.28445 15.8516 7.20978 15.7769C7.13511 15.7022 7.09778 15.6136 7.09778 15.5109V15.0069C7.09778 14.9042 7.11645 14.8202 7.15378 14.7549C7.20045 14.6802 7.28445 14.5869 7.40578 14.4749L11.5078 10.7369Z" fill="black"/>
</svg>
